<svg width="32" height="32" viewBox="0 0 32 32" fill="none" xmlns="http://www.w3.org/2000/svg">
<g clip-path="url(#clip0_1_88)">
<path d="M20.0858 2.49865C18.2821 2.26783 16.7333 1.20435 15.4286 0C14.1236 1.20418 12.5749 2.26753 10.7713 2.49865C9.88964 2.61143 8.95243 2.47517 8.21287 1.98212L9.19118 6.70879C9.19118 6.70879 12.3607 6.58824 15.4286 6.58824C18.4964 6.58824 21.6659 6.70879 21.6659 6.70879L22.6442 1.98212C21.9048 2.47534 20.9675 2.61142 20.0858 2.49865Z" fill="#F9D727"/>
<path d="M20.0642 8.41035H24.9583C26.5461 8.41035 27.7425 8.68224 28.5473 9.22603C29.3739 9.76983 29.7871 10.716 29.7871 12.0646V30.1402C29.7871 30.9015 29.6675 31.4018 29.4282 31.6411C29.2107 31.8804 28.7322 32 27.9926 32H24.5667V12.4562C24.5667 12.1081 24.5124 11.8689 24.4036 11.7383C24.3166 11.5861 24.0773 11.51 23.6858 11.51H20.0642V8.41035ZM8.22039 32H4.79451C4.05495 32 3.56554 31.8804 3.32627 31.6411C3.10876 31.4018 3 30.9015 3 30.1402V9.71545C3 9.32392 3.10876 9.00852 3.32627 8.76925C3.54379 8.52998 3.82656 8.41035 4.17459 8.41035H8.22039V32ZM9.55812 8.41035H17.9107C18.2588 8.41035 18.5415 8.52998 18.7591 8.76925C18.9766 9.00852 19.0853 9.32392 19.0853 9.71545V29.6182H15.6921C15.0395 29.6182 14.5719 29.4442 14.2891 29.0962C14.0063 28.7264 13.8649 28.1391 13.8649 27.3343V12.4562C13.8649 12.1081 13.8106 11.8689 13.7018 11.7383C13.6148 11.5861 13.3755 11.51 12.984 11.51H9.55812V8.41035Z" fill="white"/>
</g>
<defs>
<clipPath id="clip0_1_88">
<rect width="32" height="32" fill="white"/>
</clipPath>
</defs>
</svg>
